<!-- Generated by IcoMoon.io -->
<svg version="1.1" xmlns="http://www.w3.org/2000/svg" width="1024" height="1024" viewBox="0 0 1024 1024">
<title></title>
<g id="icomoon-ignore">
</g>
<path d="M1011.011 158c-10.159-11.649-24.788-18.352-40.214-18.352h-735.074l-10.373-61.917c-4.255-25.639-26.437-44.469-52.448-44.469h-119.684c-29.416 0-53.193 23.777-53.193 53.193s23.777 53.193 53.193 53.193h74.629l98.939 593.847c0.425 2.394 1.649 4.362 2.394 6.596 0.852 2.819 1.542 5.479 2.872 8.033 1.702 3.511 3.989 6.489 6.383 9.521 1.649 2.075 3.138 4.149 5.053 5.958 3.086 2.872 6.649 4.893 10.267 6.916 2.021 1.117 3.776 2.607 5.958 3.457 6.17 2.5 12.66 3.989 19.522 3.989 0.054 0 585.176 0 585.176 0 29.416 0 53.193-23.777 53.193-53.193s-23.777-53.193-53.193-53.193h-540.069l-8.83-53.193h602.091c26.49 0 48.937-19.469 52.661-45.64l53.193-372.351c2.18-15.32-2.394-30.799-12.447-42.394zM909.466 246.035l-15.16 106.386h-189.474v-106.386h204.634zM651.639 246.035v106.386h-159.579v-106.386h159.579zM651.639 405.614v106.386h-159.579v-106.386h159.579zM438.868 246.035v106.386h-159.579c-2.819 0-5.372 0.798-7.873 1.596l-17.979-107.981h185.431zM280.033 405.614h158.835v106.386h-141.121l-17.713-106.386zM704.832 512v-106.386h181.814l-15.16 106.386h-166.654z"></path>
<path d="M438.868 910.947c0 44.066-35.723 79.789-79.789 79.789s-79.789-35.723-79.789-79.789c0-44.066 35.723-79.789 79.789-79.789s79.789 35.723 79.789 79.789z"></path>
<path d="M917.605 910.947c0 44.066-35.723 79.789-79.789 79.789s-79.789-35.723-79.789-79.789c0-44.066 35.723-79.789 79.789-79.789s79.789 35.723 79.789 79.789z"></path>
</svg>
